#!OML:ASF X:\für Bonn\!DataBase\2005_08_11_Bastian_Final\c3d\Bastian.ASF
:FULLY-SPECIFIED
:DEGREES
63
root -1.95287 16.1488 -12.1652 166.156 -15.9136 -177.716
lowerback 14.7194 -3.06473 -2.94017
upperback 7.61134 -5.45076 -1.19384
thorax -0.0430056 -3.21201 1.17946
lowerneck -3.15391 -7.10578 -4.71183
upperneck -10.2482 -9.67736 16.862
head -1.36403 -5.62782 5.82634
rclavicle 4.85035e-014 -2.46493e-014
rhumerus -16.1962 33.4878 -91.6778
rradius 125.12
rwrist 9.22046
rhand -24.6578 16.4145
rfingers 7.12502
rthumb 1.84203 -13.5573
lclavicle 4.85035e-014 -2.46493e-014
lhumerus -9.10326 -57.9003 100.349
lradius 121.848
lwrist 36.0326
lhand -7.95817 -20.1493
lfingers 7.12502
lthumb 17.9491 9.0424
rfemur -29.7552 -6.42216 20.7865
rtibia 50.3175
rfoot -185.988 -184.865
rtoes 6.8909
lfemur 29.3764 -9.63247 -17.4403
ltibia 31.239
lfoot -16.1574 -21.1272
ltoes -1.04097
64
root -1.94662 16.1624 -12.3171 165.875 -15.7176 -177.495
lowerback 14.4996 -2.99651 -2.62863
upperback 7.6509 -5.31011 -1.16223
thorax 0.0845517 -3.1353 1.00165
lowerneck -3.23226 -7.15527 -4.65727
upperneck -10.0409 -9.74985 16.7301
head -1.29397 -5.64059 5.76355
rclavicle 3.34952e-014 -2.38542e-014
rhumerus -16.2911 33.4968 -91.7265
rradius 124.806
rwrist 9.29874
rhand -24.7893 16.4687
rfingers 7.12502
rthumb 1.71508 -13.5042
lclavicle 3.34952e-014 -2.38542e-014
lhumerus -9.32742 -57.9916 100.349
lradius 122.056
lwrist 36.0063
lhand -7.95556 -20.1289
lfingers 7.12502
lthumb 17.9516 9.0626
rfemur -29.0398 -6.14419 21.1361
rtibia 50.3959
rfoot -185.73 -185.074
rtoes 6.43809
lfemur 28.2262 -9.69028 -17.012
ltibia 34.5585
lfoot -14.8617 -21.3609
ltoes -6.44865
65
root -1.94038 16.1837 -12.465 165.598 -15.487 -177.273
lowerback 14.3445 -2.91978 -2.31958
upperback 7.67226 -5.16201 -1.12819
thorax 0.160508 -3.05346 0.833317
lowerneck -3.348 -7.20543 -4.55244
upperneck -9.79107 -9.82662 16.5346
head -1.21175 -5.65091 5.67028
rclavicle 8.34896e-015 -7.95139e-016
rhumerus -16.3743 33.5072 -91.7209
rradius 124.545
rwrist 9.24313
rhand -24.8512 16.4748
rfingers 7.12502
rthumb 1.65526 -13.4985
lclavicle 8.34896e-015 -7.95139e-016
lhumerus -9.56494 -58.0584 100.332
lradius 122.29
lwrist 36.0048
lhand -7.94912 -20.0735
lfingers 7.12502
lthumb 17.9578 9.11742
rfemur -28.2729 -5.8343 21.508
rtibia 50.364
rfoot -185.486 -185.283
rtoes 6.05888
lfemur 26.7421 -9.64592 -16.5025
ltibia 38.2012
lfoot -13.1095 -21.6635
ltoes -13.2451
66
root -1.93361 16.2119 -12.6093 165.291 -15.2459 -177.013
lowerback 14.287 -2.84749 -1.99839
upperback 7.67295 -5.02185 -1.068
thorax 0.166339 -2.97448 0.695037
lowerneck -3.43253 -7.24387 -4.45391
upperneck -9.54926 -9.88494 16.3269
head -1.13957 -5.6526 5.57704
rclavicle 9.8796e-014 1.43125e-014
rhumerus -16.4442 33.5675 -91.6939
rradius 124.332
rwrist 9.09797
rhand -24.8046 16.3986
rfingers 7.12502
rthumb 1.70032 -13.5744
lclavicle 9.8796e-014 1.43125e-014
lhumerus -9.73723 -58.0611 100.261
lradius 122.547
lwrist 36.0595
lhand -7.89635 -19.9908
lfingers 7.12502
lthumb 18.0086 9.19552
rfemur -27.4301 -5.53851 21.9313
rtibia 50.2286
rfoot -185.251 -185.489
rtoes 5.88869
lfemur 24.9363 -9.54342 -15.8993
ltibia 42.1553
lfoot -10.6807 -21.9896
ltoes -20.1369
67
root -1.92717 16.2416 -12.7483 164.977 -14.9938 -176.756
lowerback 14.3026 -2.7659 -1.66
upperback 7.66625 -4.87144 -1.0279
thorax 0.123735 -2.8897 0.530632
lowerneck -3.5858 -7.2889 -4.30693
upperneck -9.24108 -9.9614 16.1248
head -1.03717 -5.66073 5.47192
rclavicle 1.5207e-014 -2.8625e-014
rhumerus -16.5306 33.6134 -91.6956
rradius 124.17
rwrist 8.90844
rhand -24.7041 16.2253
rfingers 7.12502
rthumb 1.79732 -13.7469
lclavicle 1.5207e-014 -2.8625e-014
lhumerus -9.8378 -58.1066 100.075
lradius 122.82
lwrist 36.1699
lhand -7.86933 -19.8937
lfingers 7.12502
lthumb 18.0346 9.29015
rfemur -26.5477 -5.24841 22.3611
rtibia 50.0196
rfoot -185.027 -185.651
rtoes 5.87835
lfemur 22.8546 -9.41688 -15.2944
ltibia 46.3853
lfoot -7.61908 -22.1679
ltoes -26.3236
68
root -1.91976 16.2695 -12.8795 164.636 -14.7405 -176.494
lowerback 14.4387 -2.67526 -1.35535
upperback 7.65401 -4.71912 -0.981918
thorax 0.0164142 -2.80629 0.398895
lowerneck -3.77407 -7.33182 -4.07555
upperneck -8.94359 -10.0401 15.8695
head -0.940123 -5.67191 5.33673
rclavicle 2.3059e-014 -2.3059e-014
rhumerus -16.6018 33.7077 -91.6903
rradius 124
rwrist 8.69262
rhand -24.643 16.0392
rfingers 7.12502
rthumb 1.85633 -13.9324
lclavicle 2.3059e-014 -2.3059e-014
lhumerus -9.80075 -58.1224 99.7464
lradius 123.085
lwrist 36.3178
lhand -7.86574 -19.8485
lfingers 7.12502
lthumb 18.038 9.33509
rfemur -25.6479 -5.00822 22.8043
rtibia 49.7511
rfoot -184.811 -185.785
rtoes 5.82366
lfemur 20.5431 -9.2562 -14.6751
ltibia 50.8632
lfoot -4.23824 -22.1219
ltoes -31.8313
69
root -1.91231 16.2933 -13.0027 164.289 -14.4831 -176.243
lowerback 14.6808 -2.58236 -1.05655
upperback 7.62072 -4.56598 -0.946019
thorax -0.167814 -2.72237 0.26701
lowerneck -4.03545 -7.36313 -3.85626
upperneck -8.56675 -10.1118 15.6602
head -0.805155 -5.67524 5.21187
rclavicle 1.6201e-014 -3.02153e-014
rhumerus -16.6952 33.817 -91.6957
rradius 123.88
rwrist 8.44053
rhand -24.5033 15.7932
rfingers 7.12502
rthumb 1.99125 -14.1772
lclavicle 1.6201e-014 -3.02153e-014
lhumerus -9.72372 -58.1046 99.3662
lradius 123.335
lwrist 36.4628
lhand -7.85818 -19.7774
lfingers 7.12502
lthumb 18.0453 9.40551
rfemur -24.7531 -4.78707 23.2378
rtibia 49.4302
rfoot -184.588 -185.93
rtoes 5.86179
lfemur 18.0558 -9.13233 -14.0964
ltibia 55.5492
lfoot -0.793026 -21.8349
ltoes -36.1109
